<svg width="51" height="33" viewBox="0 0 51 33" fill="none" xmlns="http://www.w3.org/2000/svg">
<path fill-rule="evenodd" clip-rule="evenodd" d="M-1.44248e-06 16.5C-1.39997e-06 16.9862 0.191886 17.4524 0.533446 17.7962C0.87501 18.14 1.33827 18.3331 1.82131 18.3331L44.7788 18.3331L33.3154 29.8668C33.1461 30.0372 33.0118 30.2396 32.9201 30.4622C32.8285 30.6849 32.7813 30.9236 32.7813 31.1646C32.7813 31.4056 32.8285 31.6443 32.9201 31.867C33.0118 32.0897 33.1461 32.292 33.3154 32.4624C33.4848 32.6329 33.6858 32.7681 33.9071 32.8603C34.1283 32.9525 34.3655 33 34.6049 33C34.8444 33 35.0816 32.9525 35.3028 32.8603C35.5241 32.7681 35.7251 32.6329 35.8944 32.4624L50.4649 17.7978C50.6345 17.6275 50.7691 17.4253 50.8609 17.2026C50.9527 16.9799 51 16.7411 51 16.5C51 16.2589 50.9527 16.0201 50.8609 15.7974C50.7691 15.5747 50.6345 15.3725 50.4649 15.2022L35.8944 0.537576C35.7251 0.367143 35.524 0.23195 35.3028 0.139711C35.0815 0.0474753 34.8444 1.41237e-06 34.6049 1.4333e-06C34.3655 1.45424e-06 34.1283 0.0474754 33.9071 0.139711C33.6858 0.23195 33.4848 0.367143 33.3154 0.537576C33.1461 0.708006 33.0118 0.910337 32.9201 1.13302C32.8285 1.3557 32.7813 1.59437 32.7813 1.83539C32.7813 2.07642 32.8285 2.31509 32.9201 2.53777C33.0118 2.76045 33.1461 2.96278 33.3154 3.13321L44.7788 14.6669L1.82131 14.6669C1.33827 14.6669 0.87501 14.8601 0.533446 15.2038C0.191885 15.5476 -1.48498e-06 16.0138 -1.44248e-06 16.5Z" fill="#3C9FFA"/>
</svg>
