<svg width="51" height="33" viewBox="0 0 51 33" fill="none" xmlns="http://www.w3.org/2000/svg">
<path fill-rule="evenodd" clip-rule="evenodd" d="M51 16.5C51 16.0138 50.8081 15.5476 50.4666 15.2038C50.125 14.8601 49.6617 14.6669 49.1787 14.6669H6.22122L17.6846 3.13321C17.8539 2.96278 17.9882 2.76045 18.0799 2.53777C18.1715 2.31509 18.2187 2.07642 18.2187 1.83539C18.2187 1.59436 18.1715 1.3557 18.0799 1.13302C17.9882 0.910338 17.8539 0.708005 17.6846 0.537573C17.5152 0.367141 17.3142 0.231948 17.0929 0.139711C16.8717 0.0474739 16.6345 0 16.3951 0C16.1556 0 15.9184 0.0474739 15.6972 0.139711C15.4759 0.231948 15.2749 0.367141 15.1056 0.537573L0.535079 15.2022C0.365467 15.3725 0.230898 15.5747 0.13908 15.7974C0.0472623 16.0201 0 16.2589 0 16.5C0 16.7411 0.0472623 16.9799 0.13908 17.2026C0.230898 17.4253 0.365467 17.6275 0.535079 17.7978L15.1056 32.4624C15.2749 32.6329 15.4759 32.7681 15.6972 32.8603C15.9184 32.9525 16.1556 33 16.3951 33C16.6345 33 16.8717 32.9525 17.0929 32.8603C17.3142 32.7681 17.5152 32.6329 17.6846 32.4624C17.8539 32.292 17.9882 32.0897 18.0799 31.867C18.1715 31.6443 18.2187 31.4056 18.2187 31.1646C18.2187 30.9236 18.1715 30.6849 18.0799 30.4622C17.9882 30.2396 17.8539 30.0372 17.6846 29.8668L6.22122 18.3331H49.1787C49.6617 18.3331 50.125 18.1399 50.4666 17.7962C50.8081 17.4524 51 16.9862 51 16.5Z" fill="#3C9FFA"/>
</svg>
