<svg width="27" height="42" viewBox="0 0 27 42" fill="none" xmlns="http://www.w3.org/2000/svg">
<path fill-rule="evenodd" clip-rule="evenodd" d="M13.5 42C13.8978 42 14.2792 41.842 14.5605 41.5607C14.8418 41.2794 14.9998 40.8979 14.9998 40.5001L14.9998 5.12335L24.4365 14.5638C24.5759 14.7032 24.7415 14.8138 24.9236 14.8893C25.1058 14.9648 25.3011 15.0036 25.4983 15.0036C25.6955 15.0036 25.8908 14.9648 26.073 14.8893C26.2552 14.8138 26.4207 14.7032 26.5602 14.5638C26.6996 14.4243 26.8102 14.2587 26.8857 14.0765C26.9612 13.8943 27 13.699 27 13.5018C27 13.3046 26.9612 13.1093 26.8857 12.9271C26.8102 12.7449 26.6996 12.5793 26.5602 12.4399L14.5619 0.440653C14.4225 0.300972 14.257 0.19015 14.0748 0.114536C13.8926 0.0389213 13.6973 -5.81481e-07 13.5 -5.90104e-07C13.3027 -5.98727e-07 13.1074 0.0389213 12.9252 0.114536C12.743 0.19015 12.5775 0.300972 12.4381 0.440653L0.439834 12.4399C0.30039 12.5793 0.189775 12.7449 0.114309 12.9271C0.0388426 13.1093 1.32579e-06 13.3046 1.31717e-06 13.5018C1.30854e-06 13.699 0.0388425 13.8943 0.114309 14.0765C0.189775 14.2587 0.30039 14.4243 0.439834 14.5638C0.579278 14.7032 0.744823 14.8138 0.927015 14.8893C1.10921 14.9648 1.30448 15.0036 1.50169 15.0036C1.69889 15.0036 1.89416 14.9648 2.07635 14.8893C2.25855 14.8138 2.42409 14.7032 2.56354 14.5638L12.0002 5.12335L12.0002 40.5001C12.0002 40.8979 12.1582 41.2794 12.4395 41.5607C12.7208 41.842 13.1022 42 13.5 42Z" fill="white"/>
</svg>
