<svg width="219" height="193" viewBox="0 0 219 193" fill="none" xmlns="http://www.w3.org/2000/svg">
<path d="M92.6421 56.5874C91.609 55.9417 90.4218 55.5843 89.2039 55.5523C87.9861 55.5203 86.7818 55.8149 85.7163 56.4055C84.6507 56.9961 83.7626 57.8611 83.1443 58.9109C82.5259 59.9606 82.1998 61.1567 82.1998 62.375V132.672C82.1996 133.906 82.5337 135.117 83.1666 136.175C83.7995 137.234 84.7076 138.102 85.7942 138.685C86.8808 139.269 88.1053 139.548 89.3375 139.491C90.5697 139.435 91.7636 139.045 92.7922 138.365L147.392 102.206C148.343 101.576 149.12 100.717 149.654 99.7094C150.187 98.7014 150.46 97.5759 150.446 96.4355C150.433 95.2951 150.134 94.1763 149.576 93.1813C149.019 92.1863 148.221 91.3469 147.256 90.7396L92.6557 56.5874H92.6421ZM34.4248 0.949951C25.3743 0.949951 16.6945 4.54525 10.2948 10.9449C3.89511 17.3446 0.299805 26.0244 0.299805 35.075V157.925C0.299805 166.975 3.89511 175.655 10.2948 182.055C16.6945 188.455 25.3743 192.05 34.4248 192.05H184.575C193.625 192.05 202.305 188.455 208.705 182.055C215.105 175.655 218.7 166.975 218.7 157.925V35.075C218.7 26.0244 215.105 17.3446 208.705 10.9449C202.305 4.54525 193.625 0.949951 184.575 0.949951H34.4248ZM13.9498 35.075C13.9498 29.6446 16.107 24.4367 19.9468 20.5969C23.7866 16.7571 28.9945 14.6 34.4248 14.6H184.575C190.005 14.6 195.213 16.7571 199.053 20.5969C202.893 24.4367 205.05 29.6446 205.05 35.075V157.925C205.05 163.355 202.893 168.563 199.053 172.403C195.213 176.243 190.005 178.4 184.575 178.4H34.4248C28.9945 178.4 23.7866 176.243 19.9468 172.403C16.107 168.563 13.9498 163.355 13.9498 157.925V35.075Z" fill="white"/>
</svg>
