<svg width="40" height="30" viewBox="0 0 40 30" fill="none" xmlns="http://www.w3.org/2000/svg">
<path d="M35.75 30H4.25C3.12283 30 2.04183 29.572 1.2448 28.8101C0.447766 28.0483 0 27.0149 0 25.9375V3.88578C0.0476694 2.83926 0.516394 1.85079 1.30832 1.12674C2.10024 0.402681 3.15414 -0.000989704 4.25 1.82228e-06H35.75C36.8772 1.82228e-06 37.9582 0.428014 38.7552 1.18988C39.5522 1.95175 40 2.98506 40 4.0625V25.9375C40 27.0149 39.5522 28.0483 38.7552 28.8101C37.9582 29.572 36.8772 30 35.75 30ZM3 5.35688V27.1875H37V5.35688L20 16.1875L3 5.35688ZM4.7 2.8125L20 12.5625L35.3 2.8125H4.7Z" fill="#3C9FFA"/>
</svg>
