<svg width="36" height="36" viewBox="0 0 36 36" fill="none" xmlns="http://www.w3.org/2000/svg">
<path d="M17.0525 0.00523905C14.0086 0.0401184 7.46437 0.514927 3.80407 3.70245C1.08137 6.26326 0.130731 10.0494 0.0193095 14.7311C-0.0731463 19.3959 -0.184568 28.1562 8.71134 30.5415V34.1746C8.71134 34.1746 8.65563 35.6283 9.6679 35.9264C10.9149 36.3011 11.6249 35.1827 12.8102 33.9811L15.0209 31.6081C21.1075 32.0886 25.7694 30.9814 26.3064 30.8172C27.5415 30.4425 34.4982 29.5986 35.6349 20.8372C36.8013 11.7888 35.0672 6.08774 31.9367 3.50892H31.9177C30.973 2.68307 27.1764 0.0569954 18.6942 0.0277418C18.6942 0.0277418 18.0648 -0.0127632 17.0525 0.00411391V0.00523905ZM17.1568 2.54918C18.0209 2.54355 18.546 2.57843 18.546 2.57843C25.7256 2.59643 29.1524 4.64756 29.9608 5.3384C32.5969 7.48291 33.9553 12.6225 32.9608 20.1767C32.0161 27.5014 26.3739 27.9649 25.3297 28.2811C24.8852 28.4161 20.7792 29.377 15.6064 29.0608C15.6064 29.0608 11.7541 33.4736 10.5498 34.61C10.3589 34.8092 10.1361 34.8677 9.99387 34.8384C9.78999 34.7912 9.72835 34.5515 9.74021 34.223L9.77695 28.1933C2.23232 26.2131 2.67682 18.7411 2.75742 14.8379C2.84988 10.9348 3.62153 7.74169 5.9187 5.57918C9.01123 2.92497 14.5681 2.56718 17.1544 2.54918H17.1568ZM17.7258 6.45116C17.6637 6.45056 17.6021 6.46164 17.5445 6.48375C17.4869 6.50587 17.4346 6.53857 17.3904 6.57999C17.3462 6.62141 17.3111 6.67072 17.2871 6.72508C17.2631 6.77944 17.2506 6.83777 17.2505 6.89671C17.2505 7.14875 17.4662 7.34789 17.7258 7.34789C18.901 7.32668 20.0691 7.52653 21.1626 7.93592C22.2561 8.34531 23.2534 8.95615 24.0969 9.73319C25.8192 11.3208 26.6584 13.454 26.6904 16.2432C26.6904 16.4896 26.9002 16.6944 27.1657 16.6944V16.6764C27.2909 16.6767 27.4111 16.6301 27.5001 16.5466C27.5891 16.4631 27.6398 16.3496 27.6411 16.2309C27.6986 14.918 27.4743 13.6077 26.9818 12.3797C26.4893 11.1517 25.7389 10.0315 24.7761 9.08736C22.8997 7.34677 20.522 6.45003 17.7258 6.45003V6.45116ZM11.4779 7.48291C11.1424 7.43638 10.8002 7.50031 10.5083 7.66406H10.4834C9.80571 8.04114 9.19521 8.51772 8.67459 9.07611C8.24195 9.55092 8.00725 10.0314 7.94561 10.4938C7.90887 10.7694 7.93376 11.0451 8.02029 11.3084L8.05111 11.3264C8.53828 12.6856 9.1748 13.993 9.95238 15.2239C10.954 16.9532 12.1867 18.5524 13.6198 19.9821L13.6625 20.0406L13.73 20.0878L13.7727 20.1351L13.8225 20.1756C15.3341 21.5399 17.023 22.7155 18.8483 23.6737C20.9345 24.7515 22.2004 25.2612 22.9602 25.4728V25.484C23.183 25.5481 23.3857 25.5774 23.5896 25.5774C24.2371 25.5324 24.8501 25.2828 25.3309 24.8686C25.9164 24.3743 26.4129 23.7924 26.8007 23.146V23.1347C27.1646 22.4844 27.0413 21.8689 26.5162 21.4526C25.4646 20.5801 24.3274 19.8051 23.1202 19.1382C22.3118 18.7219 21.4904 18.974 21.1573 19.3959L20.4473 20.2454C20.0834 20.6673 19.422 20.6088 19.422 20.6088L19.403 20.62C14.4709 19.424 13.1551 14.6838 13.1551 14.6838C13.1551 14.6838 13.0935 14.0391 13.5499 13.7106L14.4389 13.031C14.8644 12.7024 15.1607 11.9238 14.7044 11.1554C14.0067 10.0079 13.192 8.92821 12.2721 7.93184C12.071 7.69695 11.7888 7.53713 11.4755 7.48066L11.4779 7.48291ZM18.546 8.81958C17.9166 8.81958 17.9166 9.72194 18.552 9.72194C19.3346 9.73399 20.1071 9.89232 20.8252 10.1879C21.5434 10.4835 22.1931 10.9105 22.7374 11.4445C23.2338 11.9643 23.6153 12.5735 23.8592 13.2358C24.1031 13.8981 24.2045 14.6002 24.1574 15.3004C24.1595 15.4189 24.2105 15.5319 24.2993 15.6151C24.3882 15.6984 24.5078 15.7454 24.6327 15.7459L24.6517 15.7696C24.7774 15.7687 24.8978 15.7209 24.9867 15.6364C25.0757 15.552 25.126 15.4378 25.127 15.3184C25.1697 13.5305 24.5841 12.0307 23.4355 10.8291C22.281 9.62743 20.6701 8.95347 18.6136 8.81958H18.546ZM19.3248 11.2454C18.6764 11.2274 18.6515 12.1477 19.294 12.1657C20.8562 12.2422 21.6148 12.9916 21.7144 14.533C21.7166 14.65 21.7669 14.7616 21.8546 14.8438C21.9424 14.926 22.0605 14.9724 22.1838 14.973H22.2028C22.2662 14.9704 22.3284 14.9558 22.3858 14.9302C22.4432 14.9045 22.4946 14.8683 22.5371 14.8236C22.5796 14.7789 22.6122 14.7265 22.6332 14.6697C22.6541 14.6129 22.663 14.5526 22.6591 14.4925C22.5477 12.483 21.3932 11.3511 19.3438 11.2465H19.3248V11.2454Z" fill="#3C9FFA"/>
</svg>
