<svg width="36" height="35" viewBox="0 0 36 35" fill="none" xmlns="http://www.w3.org/2000/svg">
<path fill-rule="evenodd" clip-rule="evenodd" d="M26.2482 20.9738C25.7991 20.7565 23.597 19.7094 23.187 19.5636C22.7771 19.4192 22.4787 19.3477 22.1787 19.7823C21.8803 20.214 21.0227 21.1911 20.7619 21.4798C20.4997 21.77 20.2389 21.805 19.7913 21.5892C19.3436 21.3704 17.8997 20.914 16.189 19.4382C14.8582 18.289 13.9584 16.87 13.6976 16.4354C13.4369 16.0023 13.669 15.7675 13.8935 15.5517C14.0955 15.3577 14.3412 15.0457 14.5658 14.7934C14.7903 14.5396 14.8642 14.3588 15.0134 14.0686C15.1641 13.7798 15.0888 13.5275 14.9757 13.3102C14.8642 13.093 13.9689 10.9594 13.5951 10.0917C13.2319 9.24734 12.8626 9.36254 12.5883 9.34796C12.326 9.33629 12.0276 9.33338 11.7292 9.33338C11.4307 9.33338 10.9454 9.44129 10.5355 9.87588C10.124 10.309 8.96795 11.3575 8.96795 13.4911C8.96795 15.6232 10.5716 17.6838 10.7962 17.974C11.0208 18.2627 13.9538 22.6406 18.4468 24.5175C19.517 24.9638 20.3505 25.2306 21.0001 25.429C22.0732 25.76 23.0499 25.7133 23.8216 25.6011C24.6807 25.4771 26.4713 24.5525 26.8451 23.5404C27.2174 22.5284 27.2174 21.6606 27.1058 21.4798C26.9943 21.299 26.6959 21.1911 26.2467 20.9738H26.2482ZM18.0761 31.7698H18.07C15.4014 31.7703 12.7818 31.0762 10.4857 29.7602L9.94312 29.4481L4.30311 30.8802L5.80882 25.5602L5.45462 25.0148C3.96269 22.717 3.17314 20.0576 3.17722 17.344C3.18023 9.39609 9.86324 2.92985 18.0821 2.92985C22.0612 2.92985 25.8021 4.43193 28.6145 7.15609C30.0018 8.49277 31.1013 10.0823 31.8494 11.8328C32.5976 13.5833 32.9797 15.4599 32.9734 17.3542C32.9704 25.3021 26.2874 31.7698 18.0761 31.7698ZM30.7548 5.08672C29.0941 3.46932 27.1182 2.18688 24.9416 1.31372C22.7649 0.440569 20.4309 -0.00594452 18.0746 5.97588e-05C8.19625 5.97588e-05 0.153736 7.78025 0.150722 17.3425C0.146144 20.3857 0.971213 23.3762 2.54268 26.0123L0 35L9.5015 32.5879C12.1299 33.9735 15.0753 34.6995 18.0685 34.6996H18.0761C27.9544 34.6996 35.9969 26.9194 35.9999 17.3557C36.0072 15.0767 35.5474 12.8189 34.6471 10.713C33.7468 8.60708 32.4238 6.69478 30.7548 5.08672Z" fill="#3C9FFA"/>
</svg>
